#!OML:ASF F:\VICON\USERDATA\INSTALL\rory3\rory3.ASF
:FULLY-SPECIFIED
:DEGREES
103
root -5.6147129113694705 18.033911200519757 -1.181873200157959 -162.73206159299235 2.926059717083458 -172.44552757481125
lfemur -20.35538828981452 -8.053972938740625 -3.8093309797132964
ltibia 30.936799631465984
lfoot 12.183866088464125 -20.047924409703494
ltoes 26.24075632676292
rfemur 1.465079705402763 0.6461054175117328 12.825064546806434
rtibia 24.229287166063656
rfoot 24.55623082928308 -28.215055379688458
rtoes 14.046645650620444
lowerback -4.709327476703038 9.651321776622828 2.7626622976878594
upperback -5.845054416797679 7.532161572064783 0.17753408344324195
thorax -3.0287386642298006 1.1878336283951183 -0.9099484471819452
lowerneck -14.874960615921179 -2.3677180490319336 1.9499227599172793
upperneck 13.20529480418307 -5.95853568560329 4.194448593651538
head 8.484815978541056 -1.953742511644535 -0.44171806426998617
lclavicle -7.003475928362076e-15 -5.110799141770254e-15
lhumerus 54.16188944559358 3.5088303317751937 64.50605448819107
lradius 42.76491099226987
lwrist 36.836128258365626
lhand -8.988073362856202 24.51914453383054
lfingers 7.125020000000003
lthumb -165.63487433567042 290.5613178742261
rclavicle -7.0376169499547974e-15 -5.1702956558784996e-15
rhumerus 62.60285397968681 33.175318281231114 -69.6720072272612
rradius 38.64830629406868
rwrist -41.61304957117714
rhand -41.32242278025789 0.9341075987662606
rfingers 7.125020000000003
rthumb -18.57433344824558 -26.192249297095948
104
root -5.609739299467321 18.041186589495137 -1.092889167210414 -161.46545235504263 3.5772287225209745 -170.97297826141545
lfemur -20.85988620591055 -8.015862411179826 -3.786257111636979
ltibia 31.013146542706792
lfoot 12.694881260219864 -19.28683893911836
ltoes 26.799615036899617
rfemur 1.523205687650245 0.46170307625810963 13.164957793569343
rtibia 23.719458715838503
rfoot 24.280198125450813 -27.337734518656276
rtoes 12.598350343551015
lowerback -4.539529866465676 9.571783374682198 2.328720085038544
upperback -5.721045844105438 7.39065374887735 0.2032905770422504
thorax -3.0552163113199735 1.1992852900687683 -0.9428597365351998
lowerneck -14.615091096641999 -1.8626951924449746 1.898063378216733
upperneck 13.02563911530548 -5.515464828582174 4.249913637844086
head 8.522909057346551 -1.7036207940041064 -0.2961255238186824
lclavicle -7.003071765923488e-15 -5.100080095091643e-15
lhumerus 54.1106068719293 2.6593885581353938 64.99607701995907
lradius 41.95786901382962
lwrist 37.162225780449326
lhand -9.151008456502874 23.817130220009734
lfingers 7.125020000000003
lthumb -165.6271120794102 288.35159210059317
rclavicle -7.0382314988466985e-15 -5.170676734976408e-15
rhumerus 61.869911950156535 33.78921897588518 -70.02859957583944
rradius 42.278374709121074
rwrist -42.84410545089322
rhand -40.91310775704835 0.40456541577546545
rfingers 7.125020000000003
rthumb -17.614992758735124 -27.175196570790234
105
root -5.605584571927755 18.042695364906507 -1.0079319977838193 -159.82480483846007 4.242714462343876 -169.14974131412785
lfemur -21.329433526249574 -7.880647040183805 -3.8054556559014916
ltibia 31.030002965491477
lfoot 13.302249940399484 -18.647399015363334
ltoes 27.915098877423354
rfemur 1.493119940863684 0.32293942898123573 13.549720063919594
rtibia 23.298308776276468
rfoot 23.96119190333723 -26.585409080284954
rtoes 11.494459948055779
lowerback -4.46314581470676 9.449513406744716 1.9336492821452107
upperback -5.617961237147677 7.231209122246132 0.23738019025549706
thorax -3.0450343022826343 1.2328150246565617 -0.9377875676190977
lowerneck -14.535749009388361 -1.4471767564891498 1.6841805201768154
upperneck 12.92119032334516 -5.0972656208771046 4.280101211998912
head 8.551505231942786 -1.4963285460283124 -0.15136879381246682
lclavicle -7.001497461562382e-15 -5.08664220607644e-15
lhumerus 53.95482456606251 1.8900951969997024 65.5303298360685
lradius 41.34341367708305
lwrist 37.323107050195574
lhand -9.226590159839903 23.05240637662975
lfingers 7.125020000000003
lthumb -165.86690854873407 282.89258688258127
rclavicle -7.0370044719041885e-15 -5.169815553286621e-15
rhumerus 61.11026423495031 34.303578691335304 -70.42076203329445
rradius 45.7354605020574
rwrist -44.320986737091204
rhand -40.33077961919387 -0.1205623806578835
rfingers 7.125020000000003
rthumb -16.325389901515933 -28.089686100043476
106
root -5.593437626162332 18.052341651282287 -0.9282084697474353 -158.00425095599616 4.998692749601464 -167.3720395970199
lfemur -21.744793770432775 -7.639605282900752 -3.8931611313708663
ltibia 30.972972092256935
lfoot 13.607264865647963 -18.130608869983803
ltoes 28.27504480537156
rfemur 1.4181954437738895 0.2820273911839838 14.016984940945015
rtibia 22.782948070367617
rfoot 23.70099023571713 -26.032737472941854
rtoes 10.56926471997373
lowerback -4.4579773939216505 9.276094253994987 1.622123353052915
upperback -5.548056773266073 7.148567818397437 0.25510790719664755
thorax -3.023034509897145 1.299305314930751 -0.9666971061339154
lowerneck -14.386679737024977 -1.1525082315501742 1.4357480399380358
upperneck 12.869032540238768 -4.736768463617066 4.292297417527544
head 8.565296722101134 -1.293829622225952 -0.016636790397611123
lclavicle -7.000030402621508e-15 -5.070605451423913e-15
lhumerus 53.6591933946073 1.0196524807746954 65.9311095191073
lradius 40.88240703983011
lwrist 37.25158627456886
lhand -9.052150115210981 22.4766413409146
lfingers 7.125020000000003
lthumb -166.15405505881603 279.2987259760331
rclavicle -7.036197352077291e-15 -5.169254799315367e-15
rhumerus 60.28815241969076 34.81160107626519 -70.96884758026735
rradius 48.87967437165303
rwrist -46.036150850845345
rhand -39.59706151017104 -0.9077549848450488
rfingers 7.125020000000003
rthumb -14.83800358088736 -29.249760267926373
107
root -5.591832853099062 18.059678455201063 -0.8466687313204202 -156.1411423411301 5.85889357156092 -165.6019426334684
lfemur -22.107850027039717 -7.385023131465588 -4.0364076393122845
ltibia 30.74867788747756
lfoot 14.15817745271304 -17.595956985511208
ltoes 29.44744754481686
rfemur 1.3409154858988455 0.2864437381646246 14.476668109744733
rtibia 22.292674299525157
rfoot 23.430737986118086 -25.67742049632035
rtoes 10.103712089746622
lowerback -4.526517154923626 9.007025133427929 1.372658570978703
upperback -5.5033351666397765 7.060332752483835 0.31605412156980495
thorax -3.000843025350961 1.3915650300858986 -0.9713400903063985
lowerneck -14.333123001754403 -0.9881198501881128 1.0876615559750176
upperneck 12.85662969530433 -4.466926078327496 4.273967980280447
head 8.581645759042969 -1.141054071249879 0.10007345742599383
lclavicle -6.999096628544975e-15 -5.050458605342305e-15
lhumerus 53.228983706330496 0.3637175474496388 66.48353220756148
lradius 40.55827932929253
lwrist 36.73199175162998
lhand -8.973804618076112 22.035917057870495
lfingers 7.125020000000003
lthumb -166.6165945630593 274.89885195971783
rclavicle -7.035607578628175e-15 -5.1688321386441694e-15
rhumerus 59.57811495339852 35.31249978502186 -71.41726267305866
rradius 51.679501506743044
rwrist -47.743691133694526
rhand -38.62785414011 -1.900087469981166
rfingers 7.125020000000003
rthumb -13.095439034567416 -30.65062897379859
108
root -5.596693863350347 18.048461044931567 -0.7704698592237778 -154.62454271978964 6.630185885894765 -164.03154087233725
lfemur -22.4226929820833 -7.153796450328196 -4.231834848106579
ltibia 30.365869737152465
lfoot 15.01131361661986 -16.877330703145397
ltoes 31.657467319057794
rfemur 1.2522173630836413 0.25098185973473225 14.865628773272997
rtibia 22.12300909553573
rfoot 22.900420456674823 -25.54194784777551
rtoes 10.169771399067725
lowerback -4.581479001986094 8.711457148039578 1.1464698032087854
upperback -5.482512934412193 6.969293781261332 0.36311699918478135
thorax -2.9974024789919587 1.4448373010477509 -0.9714712289924696
lowerneck -14.217909245070606 -0.9917975651236274 0.7823298056816048
upperneck 12.83675910951752 -4.266162997727205 4.232363240044072
head 8.58734462427955 -1.02071604140589 0.1937423192717056
lclavicle -6.9985525581024744e-15 -5.025142921269411e-15
lhumerus 52.77145230203642 -0.1315581334001017 67.08505265448765
lradius 40.38944828508372
lwrist 36.092522804951216
lhand -9.075734291100781 21.624722707468095
lfingers 7.125020000000003
lthumb -167.06961673381505 268.05424260310525
rclavicle -7.03502407197583e-15 -5.1684741042098716e-15
rhumerus 59.07141566122955 35.684670530209125 -71.7556299522543
rradius 53.92906723208551
rwrist -49.59882327885077
rhand -37.49246219168059 -2.8196667400092146
rfingers 7.125020000000003
rthumb -11.005556490781753 -31.839157023085182
109
root -5.5997656079730955 18.049116383657466 -0.7092785933044985 -153.35267778962134 7.510331951646073 -162.84652398289535
lfemur -22.716148343920807 -6.847190202688745 -4.450993421928953
ltibia 30.01848005768801
lfoot 15.555659208007457 -16.276706447055783
ltoes 32.926021044840034
rfemur 1.2163727933807529 0.2722737971149084 15.300732381750285
rtibia 21.86402458179625
rfoot 22.529151687213997 -25.552618192307357
rtoes 10.308929245401943
lowerback -4.65417935927281 8.489512835470482 1.0258086872272032
upperback -5.453118841952309 6.9333124555061225 0.39990367321539577
thorax -3.0028638821768707 1.5430757839736373 -0.9905509954867271
lowerneck -14.116538859233362 -1.0795806821475995 0.4359873645853076
upperneck 12.803873132273909 -4.17517142182915 4.2252604774179705
head 8.577281522348615 -0.986742861120743 0.27141181188841057
lclavicle -6.997412630947321e-15 -5.001318055162115e-15
lhumerus 52.438546118142156 -0.5166730608859389 67.56899818311079
lradius 40.34998346941122
lwrist 35.020065679738615
lhand -9.043962696035784 21.422577065367495
lfingers 7.125020000000003
lthumb -167.59056237867222 257.1668652073919
rclavicle -7.034151337395643e-15 -5.16787520241657e-15
rhumerus 58.6266739269184 36.12461232028516 -72.1577855675429
rradius 55.77002180547072
rwrist -51.48220360537529
rhand -36.25461252374662 -3.862739856799017
rfingers 7.125020000000003
rthumb -8.88492376173633 -33.05980370430801
